<svg xmlns="http://www.w3.org/2000/svg" viewBox="0 0 760 460" role="img" aria-label="Market chart illustration">
  <defs>
    <linearGradient id="bg" x1="0" x2="1" y1="0" y2="1">
      <stop offset="0" stop-color="#0f172a"/>
      <stop offset="1" stop-color="#020617"/>
    </linearGradient>
    <linearGradient id="line" x1="0" x2="1">
      <stop offset="0" stop-color="#22c55e"/>
      <stop offset=".5" stop-color="#38bdf8"/>
      <stop offset="1" stop-color="#f5c451"/>
    </linearGradient>
  </defs>
  <rect width="760" height="460" rx="34" fill="url(#bg)"/>
  <g stroke="#334155" stroke-width="1" opacity=".55">
    <path d="M70 70h620M70 140h620M70 210h620M70 280h620M70 350h620"/>
    <path d="M130 50v350M230 50v350M330 50v350M430 50v350M530 50v350M630 50v350"/>
  </g>
  <path d="M72 332 C132 300, 150 250, 204 270 S286 354, 340 286 405 168, 462 198 524 258, 580 170 652 118, 690 140" fill="none" stroke="url(#line)" stroke-width="8" stroke-linecap="round"/>
  <path d="M72 332 C132 300, 150 250, 204 270 S286 354, 340 286 405 168, 462 198 524 258, 580 170 652 118, 690 140 L690 380 L72 380Z" fill="#38bdf8" opacity=".10"/>
  <g font-family="Arial, sans-serif">
    <text x="70" y="424" fill="#94a3b8" font-size="18">Pool movement</text>
    <text x="520" y="424" fill="#22c55e" font-size="20" font-weight="900">+1-5% daily model</text>
    <rect x="76" y="82" width="148" height="48" rx="14" fill="#111827" stroke="#334155"/>
    <text x="98" y="113" fill="#f8fafc" font-size="18" font-weight="900">$1,000,347</text>
  </g>
</svg>
